{
	"asset":{
		"version":"2.0",
		"generator":"Houdini GLTF 2.0 Exporter"
	},
	"accessors":[
		{
			"bufferView":0,
			"componentType":5123,
			"count":960,
			"type":"SCALAR",
			"min":[0
			],
			"max":[959
			]
		},
		{
			"bufferView":1,
			"componentType":5126,
			"count":960,
			"type":"VEC3",
			"min":[-1.9054985,-0.0071812286,-1.78871763
			],
			"max":[1.9054985,1.0258193,1.10187745
			]
		},
		{
			"bufferView":2,
			"componentType":5126,
			"count":960,
			"type":"VEC3",
			"min":[-1,-0.999980867,-1
			],
			"max":[1,0.999980867,1
			]
		},
		{
			"bufferView":3,
			"componentType":5126,
			"count":960,
			"type":"VEC2",
			"min":[0,0
			],
			"max":[1,1
			]
		}
	],
	"buffers":[
		{
			"uri":"butterfly_data.bin",
			"byteLength":32640,
			"name":"main_buffer"
		}
	],
	"bufferViews":[
		{
			"buffer":0,
			"byteLength":1920,
			"target":34963
		},
		{
			"buffer":0,
			"byteOffset":1920,
			"byteLength":11520,
			"target":34962
		},
		{
			"buffer":0,
			"byteOffset":13440,
			"byteLength":11520,
			"target":34962
		},
		{
			"buffer":0,
			"byteOffset":24960,
			"byteLength":7680,
			"target":34962
		}
	],
	"nodes":[
		{
			"name":"butterfly",
			"mesh":0
		}
	],
	"meshes":[
		{
			"primitives":[
				{
					"attributes":{
						"TEXCOORD_0":3,
						"NORMAL":2,
						"POSITION":1
					},
					"indices":0
				}
			]
		}
	],
	"scenes":[
		{
			"nodes":[0
			]
		}
	],
	"scene":0
}
