{
    "asset" : {
        "generator" : "Khronos glTF Blender I/O v1.6.16",
        "version" : "2.0"
    },
    "scene" : 0,
    "scenes" : [
        {
            "name" : "Scene",
            "nodes" : [
                0,
                1,
                2
            ]
        }
    ],
    "nodes" : [
        {
            "mesh" : 0,
            "name" : "butterfly"
        },
        {
            "mesh" : 1,
            "name" : "butterfly.001"
        },
        {
            "mesh" : 2,
            "name" : "butterfly.002"
        }
    ],
    "animations" : [
        {
            "channels" : [
                {
                    "sampler" : 0,
                    "target" : {
                        "node" : 1,
                        "path" : "rotation"
                    }
                },
                {
                    "sampler" : 1,
                    "target" : {
                        "node" : 2,
                        "path" : "rotation"
                    }
                }
            ],
            "name" : "Animation",
            "samplers" : [
                {
                    "input" : 11,
                    "interpolation" : "LINEAR",
                    "output" : 12
                },
                {
                    "input" : 11,
                    "interpolation" : "LINEAR",
                    "output" : 13
                }
            ]
        }
    ],
    "meshes" : [
        {
            "name" : "Mesh_0",
            "primitives" : [
                {
                    "attributes" : {
                        "POSITION" : 0,
                        "NORMAL" : 1,
                        "TEXCOORD_0" : 2
                    },
                    "indices" : 3
                }
            ]
        },
        {
            "name" : "Mesh_0.001",
            "primitives" : [
                {
                    "attributes" : {
                        "POSITION" : 4,
                        "NORMAL" : 5,
                        "TEXCOORD_0" : 6
                    },
                    "indices" : 7
                }
            ]
        },
        {
            "name" : "Mesh_0.002",
            "primitives" : [
                {
                    "attributes" : {
                        "POSITION" : 8,
                        "NORMAL" : 9,
                        "TEXCOORD_0" : 10
                    },
                    "indices" : 7
                }
            ]
        }
    ],
    "accessors" : [
        {
            "bufferView" : 0,
            "componentType" : 5126,
            "count" : 840,
            "max" : [
                0.682864248752594,
                1.0258193016052246,
                1.1018774509429932
            ],
            "min" : [
                -0.682864248752594,
                -0.0071812286041677,
                -1.1021524667739868
            ],
            "type" : "VEC3"
        },
        {
            "bufferView" : 1,
            "componentType" : 5126,
            "count" : 840,
            "type" : "VEC3"
        },
        {
            "bufferView" : 2,
            "componentType" : 5126,
            "count" : 840,
            "type" : "VEC2"
        },
        {
            "bufferView" : 3,
            "componentType" : 5123,
            "count" : 840,
            "type" : "SCALAR"
        },
        {
            "bufferView" : 4,
            "componentType" : 5126,
            "count" : 60,
            "max" : [
                1.9054985046386719,
                0.8017787933349609,
                0.9743191003799438
            ],
            "min" : [
                0.18991315364837646,
                0.16322210431098938,
                -1.7887176275253296
            ],
            "type" : "VEC3"
        },
        {
            "bufferView" : 5,
            "componentType" : 5126,
            "count" : 60,
            "type" : "VEC3"
        },
        {
            "bufferView" : 6,
            "componentType" : 5126,
            "count" : 60,
            "type" : "VEC2"
        },
        {
            "bufferView" : 7,
            "componentType" : 5123,
            "count" : 60,
            "type" : "SCALAR"
        },
        {
            "bufferView" : 8,
            "componentType" : 5126,
            "count" : 60,
            "max" : [
                -0.18991315364837646,
                0.8017787933349609,
                0.9743191003799438
            ],
            "min" : [
                -1.9054985046386719,
                0.16322210431098938,
                -1.7887176275253296
            ],
            "type" : "VEC3"
        },
        {
            "bufferView" : 9,
            "componentType" : 5126,
            "count" : 60,
            "type" : "VEC3"
        },
        {
            "bufferView" : 10,
            "componentType" : 5126,
            "count" : 60,
            "type" : "VEC2"
        },
        {
            "bufferView" : 11,
            "componentType" : 5126,
            "count" : 12,
            "max" : [
                0.5
            ],
            "min" : [
                0.041666666666666664
            ],
            "type" : "SCALAR"
        },
        {
            "bufferView" : 12,
            "componentType" : 5126,
            "count" : 12,
            "type" : "VEC4"
        },
        {
            "bufferView" : 13,
            "componentType" : 5126,
            "count" : 12,
            "type" : "VEC4"
        }
    ],
    "bufferViews" : [
        {
            "buffer" : 0,
            "byteLength" : 10080,
            "byteOffset" : 0
        },
        {
            "buffer" : 0,
            "byteLength" : 10080,
            "byteOffset" : 10080
        },
        {
            "buffer" : 0,
            "byteLength" : 6720,
            "byteOffset" : 20160
        },
        {
            "buffer" : 0,
            "byteLength" : 1680,
            "byteOffset" : 26880
        },
        {
            "buffer" : 0,
            "byteLength" : 720,
            "byteOffset" : 28560
        },
        {
            "buffer" : 0,
            "byteLength" : 720,
            "byteOffset" : 29280
        },
        {
            "buffer" : 0,
            "byteLength" : 480,
            "byteOffset" : 30000
        },
        {
            "buffer" : 0,
            "byteLength" : 120,
            "byteOffset" : 30480
        },
        {
            "buffer" : 0,
            "byteLength" : 720,
            "byteOffset" : 30600
        },
        {
            "buffer" : 0,
            "byteLength" : 720,
            "byteOffset" : 31320
        },
        {
            "buffer" : 0,
            "byteLength" : 480,
            "byteOffset" : 32040
        },
        {
            "buffer" : 0,
            "byteLength" : 48,
            "byteOffset" : 32520
        },
        {
            "buffer" : 0,
            "byteLength" : 192,
            "byteOffset" : 32568
        },
        {
            "buffer" : 0,
            "byteLength" : 192,
            "byteOffset" : 32760
        }
    ],
    "buffers" : [
        {
            "byteLength" : 32952,
            "uri" : "data:application/octet-stream;base64,"
        }
    ]
}
